<svg width="24" height="24" viewBox="0 0 24 24" fill="none" xmlns="http://www.w3.org/2000/svg">
<path fill-rule="evenodd" clip-rule="evenodd" d="M12 4.25581C7.723 4.25581 4.25581 7.723 4.25581 12C4.25581 16.277 7.723 19.7442 12 19.7442C16.277 19.7442 19.7442 16.277 19.7442 12C19.7442 7.723 16.277 4.25581 12 4.25581ZM3 12C3 7.02944 7.02944 3 12 3C16.9706 3 21 7.02944 21 12C21 16.9706 16.9706 21 12 21C7.02944 21 3 16.9706 3 12Z" fill="#7835C3"/>
<path fill-rule="evenodd" clip-rule="evenodd" d="M8.44186 12C8.44186 11.6532 8.72298 11.3721 9.06977 11.3721H14.093C14.4398 11.3721 14.7209 11.6532 14.7209 12C14.7209 12.3468 14.4398 12.6279 14.093 12.6279H9.06977C8.72298 12.6279 8.44186 12.3468 8.44186 12Z" fill="#7835C3"/>
<path fill-rule="evenodd" clip-rule="evenodd" d="M11.9746 9.04437C12.2198 8.79916 12.6174 8.79916 12.8626 9.04437L15.3742 11.556C15.6194 11.8012 15.6194 12.1988 15.3742 12.444L12.8626 14.9556C12.6174 15.2008 12.2198 15.2008 11.9746 14.9556C11.7294 14.7104 11.7294 14.3128 11.9746 14.0676L14.0422 12L11.9746 9.93237C11.7294 9.68716 11.7294 9.28959 11.9746 9.04437Z" fill="#7835C3"/>
</svg>
