<svg width="28" height="28" viewBox="0 0 28 28" fill="none" xmlns="http://www.w3.org/2000/svg">
<path fill-rule="evenodd" clip-rule="evenodd" d="M10.3221 7.38884C10.9001 6.82549 11.5994 6.40719 12.3602 6.15806C12.3716 6.1554 12.383 6.15246 12.3943 6.14925C13.1819 5.92892 14.0079 5.86934 14.8203 5.97424C15.0043 5.99648 15.1868 6.02823 15.3672 6.06931C16.2478 6.30161 17.0594 6.75481 17.7154 7.39382C18.696 8.34886 19.2503 9.64195 19.2583 10.9926V13.8356C19.3003 14.6546 19.527 15.4545 19.923 16.1782L21.0671 18.0307C21.1148 18.1087 21.1538 18.1914 21.1838 18.2774C21.2885 18.5831 21.2644 18.9167 21.1166 19.205C20.9689 19.4933 20.7096 19.7127 20.3959 19.8149C16.2397 21.1572 11.749 21.1529 7.59561 19.8026C7.47144 19.7704 7.35366 19.7177 7.24773 19.6469C7.11946 19.56 7.01052 19.4491 6.9266 19.3208C6.84268 19.1924 6.7856 19.0491 6.75902 18.8991C6.73244 18.7492 6.73687 18.5956 6.77174 18.4472C6.80662 18.2989 6.87121 18.1588 6.96214 18.035L8.12995 16.1502C8.52836 15.4256 8.75358 14.6227 8.78799 13.8015V10.9934C8.78941 9.64144 9.34089 8.34517 10.3221 7.38884ZM12.4939 3.96027C12.1426 4.19323 11.8537 4.50201 11.6482 4.86063C10.7632 5.18724 9.9501 5.69489 9.26836 6.35959C8.00623 7.59017 7.2973 9.25842 7.2973 10.9978V13.7744C7.27104 14.3534 7.11288 14.9195 6.83448 15.4317L5.70966 17.2536C5.31365 17.8226 5.16517 18.5213 5.29685 19.1967C5.42853 19.872 5.82984 20.4691 6.41245 20.8571C6.64308 21.0112 6.89786 21.1277 7.16701 21.2019C8.25071 21.5534 9.35946 21.8203 10.4828 22.0009C10.6643 22.5367 10.973 23.0291 11.3904 23.4353C12.0902 24.1162 13.0383 24.4991 14.0274 24.5C15.015 24.4952 15.9608 24.1109 16.6592 23.4308C17.0766 23.0242 17.3855 22.5316 17.5676 21.9956C18.6882 21.815 19.7943 21.5484 20.8754 21.1975C21.5647 20.9728 22.1347 20.4911 22.4599 19.8579C22.7852 19.2247 22.8392 18.4918 22.6104 17.8198C22.5463 17.6326 22.4619 17.4528 22.3582 17.2833L21.2311 15.4641C20.9529 14.9494 20.7921 14.3823 20.7595 13.8015V10.9917C20.7499 9.25576 20.0377 7.59362 18.7775 6.36604C18.0994 5.70551 17.2922 5.1995 16.4135 4.87144C16.2075 4.50821 15.9161 4.19557 15.5613 3.96027C15.1091 3.66038 14.5747 3.5 14.0276 3.5C13.4805 3.5 12.9461 3.66038 12.4939 3.96027ZM15.7912 22.2088C15.2034 22.2554 14.6132 22.2786 14.0221 22.2782V22.2826C13.4349 22.2829 12.8486 22.26 12.2648 22.214C12.3198 22.2822 12.3792 22.3476 12.4428 22.4096C12.8627 22.8185 13.4319 23.0483 14.0257 23.0483C14.6195 23.0483 15.189 22.8185 15.6089 22.4096C15.6742 22.346 15.735 22.2789 15.7912 22.2088Z" fill="#343434"/>
</svg>
