<svg width="32" height="32" viewBox="0 0 32 32" fill="none" xmlns="http://www.w3.org/2000/svg">
<path fill-rule="evenodd" clip-rule="evenodd" d="M6.05917 6.05917C7.54881 4.56953 9.77789 4 12.6512 4H19.3488C22.2221 4 24.4512 4.56953 25.9408 6.05917C27.4305 7.54881 28 9.77789 28 12.6512V19.3488C28 22.2221 27.4305 24.4512 25.9408 25.9408C24.4512 27.4305 22.2221 28 19.3488 28H12.6512C9.77789 28 7.54881 27.4305 6.05917 25.9408C4.56953 24.4512 4 22.2221 4 19.3488V12.6512C4 9.77789 4.56953 7.54881 6.05917 6.05917ZM7.24316 7.24316C6.22117 8.26515 5.67442 9.94304 5.67442 12.6512V19.3488C5.67442 22.057 6.22117 23.7349 7.24316 24.7568C8.26515 25.7788 9.94304 26.3256 12.6512 26.3256H19.3488C22.057 26.3256 23.7349 25.7788 24.7568 24.7568C25.7788 23.7349 26.3256 22.057 26.3256 19.3488V12.6512C26.3256 9.94304 25.7788 8.26515 24.7568 7.24316C23.7349 6.22117 22.057 5.67442 19.3488 5.67442H12.6512C9.94304 5.67442 8.26515 6.22117 7.24316 7.24316Z" fill="#1BA362"/>
<path fill-rule="evenodd" clip-rule="evenodd" d="M21.3367 12.2495C21.6634 12.5767 21.6629 13.1068 21.3357 13.4335L15.0064 19.7516C14.6793 20.0781 14.1496 20.0778 13.8229 19.7511L10.6638 16.592C10.3369 16.2651 10.3369 15.735 10.6638 15.408C10.9908 15.0811 11.5209 15.0811 11.8478 15.408L14.4154 17.9756L20.1527 12.2484C20.48 11.9218 21.01 11.9222 21.3367 12.2495Z" fill="#1BA362"/>
</svg>
