<svg width="32" height="32" viewBox="0 0 32 32" fill="none" xmlns="http://www.w3.org/2000/svg">
<path fill-rule="evenodd" clip-rule="evenodd" d="M8.35199 23.648C7.88267 23.1787 7.88267 22.4178 8.35199 21.9485L21.9485 8.352C22.4178 7.88268 23.1787 7.88268 23.648 8.352C24.1173 8.82132 24.1173 9.58223 23.648 10.0516L10.0515 23.648C9.58223 24.1173 8.82131 24.1173 8.35199 23.648Z" fill="#FDFDFD"/>
<path fill-rule="evenodd" clip-rule="evenodd" d="M8.35199 8.35199C8.82131 7.88267 9.58223 7.88267 10.0515 8.35199L23.648 21.9484C24.1173 22.4178 24.1173 23.1787 23.648 23.648C23.1787 24.1173 22.4178 24.1173 21.9485 23.648L8.35199 10.0515C7.88267 9.58223 7.88267 8.82131 8.35199 8.35199Z" fill="#FDFDFD"/>
</svg>
