<svg width="24" height="24" viewBox="0 0 24 24" fill="none" xmlns="http://www.w3.org/2000/svg">
<path fill-rule="evenodd" clip-rule="evenodd" d="M6.26399 17.736C5.912 17.384 5.912 16.8133 6.26399 16.4613L16.4613 6.264C16.8133 5.91201 17.384 5.91201 17.736 6.264C18.088 6.61599 18.088 7.18667 17.736 7.53866L7.53866 17.736C7.18667 18.088 6.61598 18.088 6.26399 17.736Z" fill="#343434"/>
<path fill-rule="evenodd" clip-rule="evenodd" d="M6.26399 6.26399C6.61598 5.912 7.18667 5.912 7.53866 6.26399L17.736 16.4613C18.088 16.8133 18.088 17.384 17.736 17.736C17.384 18.088 16.8133 18.088 16.4613 17.736L6.26399 7.53866C5.912 7.18667 5.912 6.61598 6.26399 6.26399Z" fill="#343434"/>
</svg>
