<svg width="16" height="16" viewBox="0 0 16 16" fill="none" xmlns="http://www.w3.org/2000/svg">
<path fill-rule="evenodd" clip-rule="evenodd" d="M7.61616 2.83721C6.33044 2.83721 5.28815 3.89923 5.28815 5.2093C5.28815 6.51937 6.33044 7.5814 7.61616 7.5814C8.90189 7.5814 9.94417 6.51937 9.94417 5.2093C9.94417 3.89923 8.90189 2.83721 7.61616 2.83721ZM4.4665 5.2093C4.4665 3.43685 5.87665 2 7.61616 2C9.35567 2 10.7658 3.43685 10.7658 5.2093C10.7658 6.98175 9.35567 8.4186 7.61616 8.4186C5.87665 8.4186 4.4665 6.98175 4.4665 5.2093Z" fill="#343434"/>
<path fill-rule="evenodd" clip-rule="evenodd" d="M12.0713 9.3543C12.4346 9.31627 12.7689 9.48253 13.0666 9.78587C13.366 10.0909 13.5311 10.4323 13.4951 10.8033C13.4612 11.1523 13.257 11.4229 13.0666 11.617L11.1317 13.5885C11.0514 13.6743 10.9526 13.7366 10.8715 13.7779C10.7861 13.8214 10.6823 13.8609 10.5779 13.8777L10.5711 13.8788L9.83245 13.9846C9.59059 14.0197 9.34085 13.9549 9.16067 13.7714C8.98049 13.5878 8.91686 13.3338 8.95128 13.0873L9.05627 12.3273C9.07302 12.2192 9.11261 12.1141 9.1551 12.0285C9.1976 11.9429 9.25799 11.8467 9.33595 11.7673L11.2751 9.79146C11.4655 9.59743 11.7306 9.38998 12.0713 9.3543ZM12.1553 10.1871C12.0962 10.1933 11.9998 10.237 11.8561 10.3835L9.91767 12.3586C9.91767 12.3586 9.91433 12.3624 9.90923 12.37C9.90274 12.3796 9.89538 12.3921 9.88827 12.4064C9.88117 12.4207 9.87562 12.4342 9.87183 12.4453C9.86946 12.4522 9.86834 12.4566 9.86793 12.4582L9.77268 13.1478L10.4498 13.0507C10.4515 13.0502 10.4565 13.049 10.4646 13.0461C10.4763 13.042 10.4901 13.0362 10.504 13.0291C10.5181 13.0219 10.5293 13.015 10.5368 13.0097C10.5385 13.0085 10.5398 13.0075 10.5407 13.0068C10.5426 13.0048 10.5446 13.0028 10.5465 13.0008L12.4856 11.025C12.6293 10.8785 12.6716 10.7808 12.6775 10.7209C12.6811 10.6831 12.6792 10.5751 12.4856 10.3779C12.2958 10.1845 12.1919 10.1833 12.1553 10.1871Z" fill="#343434"/>
<path fill-rule="evenodd" clip-rule="evenodd" d="M11.1763 9.96876C11.3949 9.90689 11.6213 10.0373 11.682 10.2601C11.8078 10.7214 12.1594 11.0797 12.6122 11.2078C12.8308 11.2697 12.9588 11.5004 12.8981 11.7232C12.8373 11.9459 12.6109 12.0764 12.3923 12.0145C11.6619 11.8077 11.0933 11.2284 10.8904 10.4841C10.8296 10.2614 10.9576 10.0306 11.1763 9.96876Z" fill="#343434"/>
<path fill-rule="evenodd" clip-rule="evenodd" d="M7.61616 10.093C5.16374 10.093 3.32165 11.7289 3.32165 13.5814C3.32165 13.8126 3.13772 14 2.91083 14C2.68393 14 2.5 13.8126 2.5 13.5814C2.5 11.1139 4.87575 9.25581 7.61616 9.25581C8.22532 9.25581 8.813 9.34533 9.36145 9.51358C9.57871 9.58023 9.70181 9.81372 9.6364 10.0351C9.57098 10.2565 9.34183 10.3819 9.12458 10.3152C8.65418 10.1709 8.14636 10.093 7.61616 10.093Z" fill="#343434"/>
</svg>
