<svg width="18" height="19" viewBox="0 0 18 19" fill="none" xmlns="http://www.w3.org/2000/svg">
<path fill-rule="evenodd" clip-rule="evenodd" d="M7.73747 2.75322C8.00858 2.78489 8.20394 3.0416 8.17381 3.32661L6.85674 15.7881C6.82662 16.0731 6.58242 16.2784 6.31131 16.2468C6.04021 16.2151 5.84485 15.9584 5.87498 15.6734L7.19205 3.21193C7.22217 2.92693 7.46637 2.72155 7.73747 2.75322Z" fill="#BABABA"/>
<path fill-rule="evenodd" clip-rule="evenodd" d="M11.6887 2.75322C11.9598 2.78489 12.1552 3.0416 12.125 3.32661L10.808 15.7881C10.7778 16.0731 10.5336 16.2784 10.2625 16.2468C9.99143 16.2151 9.79607 15.9584 9.82619 15.6734L11.1433 3.21193C11.1734 2.92693 11.4176 2.72155 11.6887 2.75322Z" fill="#BABABA"/>
<path fill-rule="evenodd" clip-rule="evenodd" d="M2.90854 7.42309C2.90854 7.13633 3.12966 6.90386 3.40244 6.90386H15.2561C15.5289 6.90386 15.75 7.13633 15.75 7.42309C15.75 7.70985 15.5289 7.94231 15.2561 7.94231H3.40244C3.12966 7.94231 2.90854 7.70985 2.90854 7.42309Z" fill="#BABABA"/>
<path fill-rule="evenodd" clip-rule="evenodd" d="M2.25 11.5769C2.25 11.2901 2.47113 11.0577 2.7439 11.0577H14.5976C14.8703 11.0577 15.0915 11.2901 15.0915 11.5769C15.0915 11.8637 14.8703 12.0961 14.5976 12.0961H2.7439C2.47113 12.0961 2.25 11.8637 2.25 11.5769Z" fill="#BABABA"/>
</svg>
