<svg width="18" height="19" viewBox="0 0 18 19" fill="none" xmlns="http://www.w3.org/2000/svg">
<path fill-rule="evenodd" clip-rule="evenodd" d="M3.375 7.74579C3.375 7.47197 3.57919 7.25 3.83108 7.25H14.1689C14.4208 7.25 14.625 7.47197 14.625 7.74579C14.625 8.01961 14.4208 8.24158 14.1689 8.24158H3.83108C3.57919 8.24158 3.375 8.01961 3.375 7.74579Z" fill="#7835C3"/>
<path fill-rule="evenodd" clip-rule="evenodd" d="M10.6387 10.7933C10.6387 10.4282 10.9109 10.1322 11.2468 10.1322H11.2522C11.5881 10.1322 11.8603 10.4282 11.8603 10.7933C11.8603 11.1584 11.5881 11.4543 11.2522 11.4543H11.2468C10.9109 11.4543 10.6387 11.1584 10.6387 10.7933Z" fill="#7835C3"/>
<path fill-rule="evenodd" clip-rule="evenodd" d="M10.6387 12.7764C10.6387 12.4114 10.9109 12.1154 11.2468 12.1154H11.2522C11.5881 12.1154 11.8603 12.4114 11.8603 12.7764C11.8603 13.1415 11.5881 13.4375 11.2522 13.4375H11.2468C10.9109 13.4375 10.6387 13.1415 10.6387 12.7764Z" fill="#7835C3"/>
<path fill-rule="evenodd" clip-rule="evenodd" d="M8.38915 10.7933C8.38915 10.4282 8.6614 10.1322 8.99725 10.1322H9.00272C9.33856 10.1322 9.61082 10.4282 9.61082 10.7933C9.61082 11.1584 9.33856 11.4543 9.00272 11.4543H8.99725C8.6614 11.4543 8.38915 11.1584 8.38915 10.7933Z" fill="#7835C3"/>
<path fill-rule="evenodd" clip-rule="evenodd" d="M8.38915 12.7764C8.38915 12.4114 8.6614 12.1154 8.99725 12.1154H9.00272C9.33856 12.1154 9.61082 12.4114 9.61082 12.7764C9.61082 13.1415 9.33856 13.4375 9.00272 13.4375H8.99725C8.6614 13.4375 8.38915 13.1415 8.38915 12.7764Z" fill="#7835C3"/>
<path fill-rule="evenodd" clip-rule="evenodd" d="M6.13843 10.7933C6.13843 10.4282 6.41069 10.1322 6.74654 10.1322H6.752C7.08785 10.1322 7.36011 10.4282 7.36011 10.7933C7.36011 11.1584 7.08785 11.4543 6.752 11.4543H6.74654C6.41069 11.4543 6.13843 11.1584 6.13843 10.7933Z" fill="#7835C3"/>
<path fill-rule="evenodd" clip-rule="evenodd" d="M6.13843 12.7764C6.13843 12.4114 6.41069 12.1154 6.74654 12.1154H6.752C7.08785 12.1154 7.36011 12.4114 7.36011 12.7764C7.36011 13.1415 7.08785 13.4375 6.752 13.4375H6.74654C6.41069 13.4375 6.13843 13.1415 6.13843 12.7764Z" fill="#7835C3"/>
<path fill-rule="evenodd" clip-rule="evenodd" d="M6.46154 2.75C6.7244 2.75 6.9375 2.96084 6.9375 3.22093V5.10465C6.9375 5.36474 6.7244 5.57558 6.46154 5.57558C6.19867 5.57558 5.98558 5.36474 5.98558 5.10465V3.22093C5.98558 2.96084 6.19867 2.75 6.46154 2.75Z" fill="#343434"/>
<path fill-rule="evenodd" clip-rule="evenodd" d="M11.5385 2.75C11.8013 2.75 12.0144 2.96084 12.0144 3.22093V5.10465C12.0144 5.36474 11.8013 5.57558 11.5385 5.57558C11.2756 5.57558 11.0625 5.36474 11.0625 5.10465V3.22093C11.0625 2.96084 11.2756 2.75 11.5385 2.75Z" fill="#343434"/>
<path fill-rule="evenodd" clip-rule="evenodd" d="M4.39085 5.34661C3.98423 5.77987 3.76442 6.43266 3.76442 7.30233V12.6395C3.76442 13.5092 3.98423 14.162 4.39085 14.5953C4.79154 15.0222 5.44168 15.3081 6.46154 15.3081H11.5385C12.5583 15.3081 13.2085 15.0222 13.6092 14.5953C14.0158 14.162 14.2356 13.5092 14.2356 12.6395V7.30233C14.2356 6.43266 14.0158 5.77987 13.6092 5.34661C13.2085 4.91966 12.5583 4.63372 11.5385 4.63372H6.46154C5.44168 4.63372 4.79154 4.91966 4.39085 5.34661ZM3.69329 4.70572C4.32385 4.03383 5.26024 3.69186 6.46154 3.69186H11.5385C12.7398 3.69186 13.6762 4.03383 14.3067 4.70572C14.9313 5.37129 15.1875 6.28827 15.1875 7.30233V12.6395C15.1875 13.6536 14.9313 14.5706 14.3067 15.2361C13.6762 15.908 12.7398 16.25 11.5385 16.25H6.46154C5.26024 16.25 4.32385 15.908 3.69329 15.2361C3.06865 14.5706 2.8125 13.6536 2.8125 12.6395V7.30233C2.8125 6.28827 3.06865 5.37129 3.69329 4.70572Z" fill="#343434"/>
</svg>
