<svg width="18" height="19" viewBox="0 0 18 19" fill="none" xmlns="http://www.w3.org/2000/svg">
<path fill-rule="evenodd" clip-rule="evenodd" d="M3.90475 4.97616C3.4778 5.39851 3.19186 6.0838 3.19186 7.15878V11.8412C3.19186 12.9162 3.4778 13.6015 3.90475 14.0238C4.33801 14.4524 4.9908 14.6841 5.86047 14.6841H12.1395C13.0092 14.6841 13.662 14.4524 14.0953 14.0238C14.5222 13.6015 14.8081 12.9162 14.8081 11.8412V7.15878C14.8081 6.0838 14.5222 5.39851 14.0953 4.97616C13.662 4.54757 13.0092 4.31588 12.1395 4.31588H5.86047C4.9908 4.31588 4.33801 4.54757 3.90475 4.97616ZM3.26386 4.2409C3.92943 3.5825 4.84641 3.3125 5.86047 3.3125H12.1395C13.1536 3.3125 14.0706 3.5825 14.7361 4.2409C15.408 4.90554 15.75 5.89255 15.75 7.15878V11.8412C15.75 13.1074 15.408 14.0945 14.7361 14.7591C14.0706 15.4175 13.1536 15.6875 12.1395 15.6875H5.86047C4.84641 15.6875 3.92943 15.4175 3.26386 14.7591C2.59197 14.0945 2.25 13.1074 2.25 11.8412V7.15878C2.25 5.89255 2.59197 4.90554 3.26386 4.2409Z" fill="#BABABA"/>
<path fill-rule="evenodd" clip-rule="evenodd" d="M12.5075 7.18014C12.6698 7.39664 12.6367 7.71232 12.4334 7.88524L10.4675 9.55803C9.64909 10.2521 8.34462 10.2521 7.52622 9.55803L7.52505 9.55705L5.56599 7.88475C5.36302 7.71149 5.33032 7.39576 5.49296 7.17953C5.65559 6.96331 5.95197 6.92848 6.15494 7.10173L8.11339 8.7735C8.58847 9.1759 9.40571 9.17581 9.88064 8.77323L11.8456 7.10124C12.0489 6.92832 12.3452 6.96365 12.5075 7.18014Z" fill="#BABABA"/>
</svg>
