<svg width="18" height="19" viewBox="0 0 18 19" fill="none" xmlns="http://www.w3.org/2000/svg">
<path fill-rule="evenodd" clip-rule="evenodd" d="M8.99995 6.95168C8.21449 6.95168 7.57774 7.61809 7.57774 8.44016C7.57774 9.26223 8.21449 9.92865 8.99995 9.92865C9.78541 9.92865 10.4222 9.26223 10.4222 8.44016C10.4222 7.61809 9.78541 6.95168 8.99995 6.95168ZM6.67761 8.44016C6.67761 7.0978 7.71736 6.0096 8.99995 6.0096C10.2825 6.0096 11.3223 7.0978 11.3223 8.44016C11.3223 9.78253 10.2825 10.8707 8.99995 10.8707C7.71736 10.8707 6.67761 9.78253 6.67761 8.44016Z" fill="#BABABA"/>
<path fill-rule="evenodd" clip-rule="evenodd" d="M9.0019 3.69208C6.95157 3.69063 4.94616 4.93583 4.41014 7.40131C3.77582 10.3344 5.5123 12.8781 7.1458 14.5258C8.18426 15.5692 9.81649 15.5679 10.8477 14.5262L10.8485 14.5254C12.4879 12.8777 14.2241 10.3403 13.5897 7.40739C13.0565 4.94174 11.0524 3.69353 9.0019 3.69208ZM14.4676 7.19938C13.8247 4.2261 11.3912 2.75169 9.00251 2.75C6.61379 2.74831 4.17863 4.21935 3.53238 7.19262C2.78665 10.6403 4.84243 13.5108 6.52132 15.2043L6.52189 15.2049C7.90773 16.5979 10.0916 16.5991 11.4726 15.2043C13.1576 13.5107 15.2134 10.6471 14.4676 7.19938Z" fill="#BABABA"/>
</svg>
