<svg width="18" height="19" viewBox="0 0 18 19" fill="none" xmlns="http://www.w3.org/2000/svg">
<path fill-rule="evenodd" clip-rule="evenodd" d="M5.68594 15.1879C6.09618 15.2681 6.56976 15.3081 7.11628 15.3081H10.8837C11.4303 15.3081 11.9038 15.2681 12.3141 15.1879C11.9884 14.0413 10.6896 13.0916 9.00001 13.0916C7.31036 13.0916 6.01158 14.0413 5.68594 15.1879ZM4.6754 15.5008C4.84051 13.5495 6.79782 12.1497 9.00001 12.1497C11.2022 12.1497 13.1595 13.5495 13.3246 15.5008C13.3435 15.7235 13.2031 15.9288 12.9888 15.9921C12.3792 16.1722 11.678 16.25 10.8837 16.25H7.11628C6.32199 16.25 5.62079 16.1722 5.01122 15.9921C4.79687 15.9288 4.65656 15.7235 4.6754 15.5008Z" fill="#BABABA"/>
<path fill-rule="evenodd" clip-rule="evenodd" d="M3.40828 3.90828C4.2462 3.07036 5.50006 2.75 7.11628 2.75H10.8837C12.4999 2.75 13.7538 3.07036 14.5917 3.90828C15.4296 4.7462 15.75 6.00006 15.75 7.61628V11.3837C15.75 12.6085 15.567 13.6217 15.1159 14.4057C14.6536 15.2091 13.9382 15.7234 12.9836 15.9936C12.8483 16.0319 12.703 16.0077 12.5874 15.9277C12.4718 15.8477 12.398 15.7203 12.3861 15.5802C12.2749 14.2663 10.8792 13.0916 9.00001 13.0916C7.1208 13.0916 5.72507 14.2663 5.6139 15.5802C5.60205 15.7203 5.52822 15.8477 5.4126 15.9277C5.29698 16.0077 5.15166 16.0319 5.01638 15.9936C4.06184 15.7234 3.34641 15.2091 2.88414 14.4057C2.43302 13.6217 2.25 12.6085 2.25 11.3837V7.61628C2.25 6.00006 2.57036 4.7462 3.40828 3.90828ZM4.07428 4.57428C3.49941 5.14915 3.19186 6.09296 3.19186 7.61628V11.3837C3.19186 12.5324 3.36675 13.3559 3.70051 13.936C3.94737 14.365 4.296 14.6867 4.78364 14.9097C5.25107 13.273 7.02729 12.1497 9.00001 12.1497C10.9727 12.1497 12.7489 13.273 13.2164 14.9097C13.704 14.6867 14.0526 14.365 14.2995 13.936C14.6333 13.3559 14.8081 12.5324 14.8081 11.3837V7.61628C14.8081 6.09296 14.5006 5.14915 13.9257 4.57428C13.3509 3.99941 12.407 3.69186 10.8837 3.69186H7.11628C5.59296 3.69186 4.64915 3.99941 4.07428 4.57428ZM9 6.8314C8.01683 6.8314 7.22302 7.62521 7.22302 8.60838C7.22302 9.59326 8.01853 10.3916 9 10.3916C9.98147 10.3916 10.777 9.59326 10.777 8.60838C10.777 7.62521 9.98317 6.8314 9 6.8314ZM6.28116 8.60838C6.28116 7.10504 7.49665 5.88953 9 5.88953C10.5033 5.88953 11.7188 7.10504 11.7188 8.60838C11.7188 10.11 10.505 11.3335 9 11.3335C7.49495 11.3335 6.28116 10.11 6.28116 8.60838Z" fill="#BABABA"/>
<path fill-rule="evenodd" clip-rule="evenodd" d="M9 6.8314C8.01683 6.8314 7.22302 7.62521 7.22302 8.60838C7.22302 9.59326 8.01853 10.3916 9 10.3916C9.98147 10.3916 10.777 9.59326 10.777 8.60838C10.777 7.62521 9.98317 6.8314 9 6.8314ZM6.28116 8.60838C6.28116 7.10504 7.49665 5.88953 9 5.88953C10.5033 5.88953 11.7188 7.10504 11.7188 8.60838C11.7188 10.11 10.505 11.3335 9 11.3335C7.49495 11.3335 6.28116 10.11 6.28116 8.60838Z" fill="#BABABA"/>
</svg>
