<svg width="18" height="19" viewBox="0 0 18 19" fill="none" xmlns="http://www.w3.org/2000/svg">
<path fill-rule="evenodd" clip-rule="evenodd" d="M4.84093 4.18184C4.51211 4.50301 4.33929 5.10129 4.33929 6.36047V12.6395C4.33929 13.8987 4.51211 14.497 4.84093 14.8182C5.16974 15.1393 5.78227 15.3081 7.07143 15.3081H10.9286C12.2177 15.3081 12.8303 15.1393 13.1591 14.8182C13.4879 14.497 13.6607 13.8987 13.6607 12.6395V6.36047C13.6607 5.10129 13.4879 4.50301 13.1591 4.18184C12.8303 3.86066 12.2177 3.69186 10.9286 3.69186H7.07143C5.78227 3.69186 5.16974 3.86066 4.84093 4.18184ZM4.15907 3.51584C4.79454 2.89515 5.78916 2.75 7.07143 2.75H10.9286C12.2108 2.75 13.2055 2.89515 13.8409 3.51584C14.4764 4.13653 14.625 5.10802 14.625 6.36047V12.6395C14.625 13.892 14.4764 14.8635 13.8409 15.4842C13.2055 16.1048 12.2108 16.25 10.9286 16.25H7.07143C5.78916 16.25 4.79454 16.1048 4.15907 15.4842C3.52361 14.8635 3.375 13.892 3.375 12.6395V6.36047C3.375 5.10802 3.52361 4.13653 4.15907 3.51584Z" fill="#BABABA"/>
<path fill-rule="evenodd" clip-rule="evenodd" d="M7.23214 5.4186C7.23214 5.15852 7.44801 4.94767 7.71429 4.94767H10.2857C10.552 4.94767 10.7679 5.15852 10.7679 5.4186C10.7679 5.67869 10.552 5.88953 10.2857 5.88953H7.71429C7.44801 5.88953 7.23214 5.67869 7.23214 5.4186Z" fill="#BABABA"/>
<path fill-rule="evenodd" clip-rule="evenodd" d="M9.00001 12.4826C8.71598 12.4826 8.48572 12.7075 8.48572 12.9849C8.48572 13.2623 8.71598 13.4872 9.00001 13.4872C9.28404 13.4872 9.51429 13.2623 9.51429 12.9849C9.51429 12.7075 9.28404 12.4826 9.00001 12.4826ZM7.52144 12.9849C7.52144 12.1873 8.18342 11.5407 9.00001 11.5407C9.8166 11.5407 10.4786 12.1873 10.4786 12.9849C10.4786 13.7825 9.8166 14.4291 9.00001 14.4291C8.18341 14.4291 7.52144 13.7825 7.52144 12.9849Z" fill="#BABABA"/>
</svg>
