<svg width="18" height="19" viewBox="0 0 18 19" fill="none" xmlns="http://www.w3.org/2000/svg">
<path fill-rule="evenodd" clip-rule="evenodd" d="M8.73529 3.54412C5.59214 3.54412 3.04412 6.09214 3.04412 9.23529C3.04412 12.3784 5.59214 14.9265 8.73529 14.9265C11.8784 14.9265 14.4265 12.3784 14.4265 9.23529C14.4265 6.09214 11.8784 3.54412 8.73529 3.54412ZM2.25 9.23529C2.25 5.65357 5.15357 2.75 8.73529 2.75C12.317 2.75 15.2206 5.65357 15.2206 9.23529C15.2206 12.817 12.317 15.7206 8.73529 15.7206C5.15357 15.7206 2.25 12.817 2.25 9.23529Z" fill="#555555"/>
<path fill-rule="evenodd" clip-rule="evenodd" d="M14.0134 14.5134C14.1684 14.3583 14.4198 14.3583 14.5749 14.5134L15.6337 15.5722C15.7888 15.7272 15.7888 15.9786 15.6337 16.1337C15.4786 16.2888 15.2272 16.2888 15.0722 16.1337L14.0134 15.0749C13.8583 14.9198 13.8583 14.6684 14.0134 14.5134Z" fill="#555555"/>
</svg>
