<svg width="18" height="19" viewBox="0 0 18 19" fill="none" xmlns="http://www.w3.org/2000/svg">
<path fill-rule="evenodd" clip-rule="evenodd" d="M13.5523 4.94415C11.8775 3.27436 9.16801 3.27517 7.5002 4.94359L7.49939 4.9444C6.33622 6.10235 5.9836 7.77079 6.43703 9.245C6.48832 9.41176 6.44327 9.59322 6.31995 9.71659L3.37246 12.6652C3.33123 12.7086 3.27536 12.7982 3.23508 12.9191C3.1941 13.0421 3.18636 13.146 3.19467 13.203L3.19522 13.2068L3.38298 14.5718C3.40061 14.6822 3.46667 14.8129 3.57803 14.9248C3.69025 15.0376 3.81786 15.1007 3.92298 15.1155L5.29533 15.3044C5.35766 15.3135 5.4638 15.3061 5.58289 15.2675C5.7028 15.2286 5.78666 15.1742 5.82506 15.1346L5.83017 15.1294L8.78712 12.1777C8.911 12.054 9.09322 12.0093 9.26024 12.0615C10.7243 12.5196 12.3927 12.1633 13.5583 11.0033C15.226 9.33463 15.2259 6.61274 13.5523 4.94415ZM6.83473 4.27706C8.87094 2.24053 12.1755 2.24148 14.217 4.2769C16.2598 6.31356 16.2598 9.63303 14.2239 11.6697L14.2231 11.6706C12.8754 13.0122 10.9749 13.4725 9.25729 13.0392L6.49762 15.794C6.3229 15.9726 6.09109 16.093 5.8732 16.1637C5.65395 16.2348 5.4 16.2713 5.16163 16.237L5.15943 16.2366L3.7946 16.0488C3.44781 16.0006 3.13878 15.8187 2.91063 15.5894C2.68236 15.36 2.50375 15.0524 2.45165 14.7112L2.45059 14.7043L2.26284 13.339L2.26253 13.3369C2.22745 13.0931 2.2699 12.8367 2.34171 12.6212C2.41385 12.4047 2.53272 12.1781 2.6985 12.0072L2.7034 12.0021L5.45994 9.24467C5.03228 7.52346 5.48468 5.62135 6.83473 4.27706Z" fill="#555555"/>
<path fill-rule="evenodd" clip-rule="evenodd" d="M5.45946 12.6114C5.64334 12.4274 5.94146 12.4274 6.12534 12.6114L7.56926 14.0558C7.75314 14.2398 7.75314 14.538 7.56926 14.7219C7.38539 14.9059 7.08726 14.9059 6.90339 14.7219L5.45946 13.2775C5.27558 13.0935 5.27558 12.7953 5.45946 12.6114Z" fill="#555555"/>
<path fill-rule="evenodd" clip-rule="evenodd" d="M10.5699 7.45548C10.3099 7.45548 10.0991 7.66636 10.0991 7.9265C10.0991 8.18664 10.3099 8.39752 10.5699 8.39752C10.83 8.39752 11.0408 8.18664 11.0408 7.9265C11.0408 7.66636 10.83 7.45548 10.5699 7.45548ZM9.15738 7.9265C9.15738 7.14609 9.78979 6.51344 10.5699 6.51344C11.35 6.51344 11.9825 7.14609 11.9825 7.9265C11.9825 8.70691 11.35 9.33956 10.5699 9.33956C9.78979 9.33956 9.15738 8.70691 9.15738 7.9265Z" fill="#555555"/>
</svg>
