<svg width="16" height="16" viewBox="0 0 16 16" fill="none" xmlns="http://www.w3.org/2000/svg">
<path fill-rule="evenodd" clip-rule="evenodd" d="M8.54146 12.5293C9.00415 12.1546 9.29218 11.5484 9.37727 10.5622C9.39807 10.3211 9.61077 10.1425 9.85234 10.1633C10.0939 10.184 10.2729 10.3963 10.2521 10.6374C10.1557 11.7544 9.81155 12.6293 9.09471 13.2098C8.38999 13.7805 7.40511 14 6.17954 14H6.10344C4.75172 14 3.69116 13.7325 2.97957 13.0223C2.26798 12.3121 2 11.2537 2 9.90458L2 6.09542C2 4.74634 2.26798 3.68786 2.97957 2.97765C3.69116 2.26745 4.75172 2 6.10344 2L6.17954 2C7.39621 2 8.37516 2.21658 9.07844 2.7781C9.79441 3.34976 10.1431 4.21184 10.246 5.31279C10.2685 5.55374 10.091 5.76727 9.84957 5.78973C9.60815 5.8122 9.3942 5.63508 9.37169 5.39413C9.28135 4.42691 8.99201 3.83135 8.52993 3.46241C8.05515 3.08333 7.31605 2.87634 6.17954 2.87634H6.10344C4.83856 2.87634 4.06691 3.13177 3.60045 3.59732C3.13398 4.06287 2.87805 4.83301 2.87805 6.09542L2.87805 9.90458C2.87805 11.167 3.13398 11.9371 3.60045 12.4027C4.06691 12.8682 4.83856 13.1237 6.10344 13.1237H6.17954C7.32471 13.1237 8.06666 12.9138 8.54146 12.5293Z" fill="#343434"/>
<path fill-rule="evenodd" clip-rule="evenodd" d="M13.3443 8.00584C13.3443 8.24783 13.1478 8.44401 12.9053 8.44401L6.24379 8.44401C6.00132 8.44401 5.80476 8.24783 5.80476 8.00584C5.80476 7.76384 6.00132 7.56767 6.24379 7.56767L12.9053 7.56767C13.1478 7.56767 13.3443 7.76384 13.3443 8.00584Z" fill="#343434"/>
<path fill-rule="evenodd" clip-rule="evenodd" d="M11.2895 10.2728C11.1181 10.1017 11.1181 9.82428 11.2895 9.65316L12.9401 8.00584L11.2895 6.35852C11.1181 6.1874 11.1181 5.90997 11.2895 5.73885C11.461 5.56774 11.739 5.56774 11.9104 5.73885L13.8714 7.69601C14.0429 7.86712 14.0429 8.14456 13.8714 8.31567L11.9104 10.2728C11.739 10.4439 11.461 10.4439 11.2895 10.2728Z" fill="#343434"/>
</svg>
