<svg xmlns="http://www.w3.org/2000/svg" width="36.865" height="36.842" viewBox="0 0 36.865 36.842">
  <g id="Grupo_36117" data-name="Grupo 36117" transform="translate(-302.746 -392.81)">
    <path id="Trazado_31454" data-name="Trazado 31454" d="M0,1.5" transform="translate(314.049 417.002)" fill="#343434" stroke="#343434" stroke-linecap="round" stroke-width="1.5"/>
    <path id="Trazado_29468" data-name="Trazado 29468" d="M36.136.464A1.05,1.05,0,0,0,34.979.247L.632,15.307a1.074,1.074,0,0,0-.631.9,1.042,1.042,0,0,0,.537.964l11.969,6.789,7.1,12.1a1.058,1.058,0,0,0,.9.521h.062a1.05,1.05,0,0,0,.916-.631L36.362,1.611A1.037,1.037,0,0,0,36.136.464ZM30.674,4.42,13.1,21.875,3.393,16.381Zm-10.3,28.8-5.79-9.856L32.267,5.8Z" transform="translate(302.947 392.869)" fill="#343434" stroke="#343434" stroke-width="0.4"/>
  </g>
</svg>
