<svg width="24" height="24" viewBox="0 0 24 24" fill="none" xmlns="http://www.w3.org/2000/svg">
<path fill-rule="evenodd" clip-rule="evenodd" d="M6.45662 7.99653C6.45662 7.64236 6.7468 7.35526 7.10474 7.35526H14.018C14.3759 7.35526 14.6661 7.64236 14.6661 7.99653C14.6661 8.35069 14.3759 8.63779 14.018 8.63779H7.10474C6.7468 8.63779 6.45662 8.35069 6.45662 7.99653Z" fill="#343434"/>
<path fill-rule="evenodd" clip-rule="evenodd" d="M6.45662 11.4166C6.45662 11.0624 6.7468 10.7753 7.10474 10.7753H11.4255C11.7835 10.7753 12.0736 11.0624 12.0736 11.4166C12.0736 11.7708 11.7835 12.0579 11.4255 12.0579H7.10474C6.7468 12.0579 6.45662 11.7708 6.45662 11.4166Z" fill="#343434"/>
<path fill-rule="evenodd" clip-rule="evenodd" d="M7.93198 3.00104C7.94427 3.00035 7.95658 3 7.9689 3H14.8821C14.8938 3 14.9055 3.00031 14.9171 3.00093C16.4102 3.08079 17.7085 3.40719 18.6037 4.3925C19.4874 5.36518 19.851 6.84199 19.851 8.89965V12.5655C19.851 12.9197 19.5609 13.2068 19.2029 13.2068C18.845 13.2068 18.5548 12.9197 18.5548 12.5655V8.89965C18.5548 6.9387 18.1969 5.86328 17.6397 5.2499C17.0961 4.65164 16.2389 4.35809 14.8644 4.28253H7.98762C6.61232 4.36231 5.7548 4.65579 5.2111 5.25342C4.6541 5.86567 4.29623 6.93875 4.29623 8.89965V14.1751C4.29623 15.9273 4.52241 17.0337 5.11424 17.723C5.68268 18.385 6.73319 18.8179 8.83305 18.8179H13.0753C13.4332 18.8179 13.7234 19.105 13.7234 19.4592C13.7234 19.8133 13.4332 20.1004 13.0753 20.1004H8.83305C6.61214 20.1004 5.07018 19.6526 4.12635 18.5533C3.2059 17.4813 3 15.9457 3 14.1751V8.89965C3 6.84194 3.3637 5.36706 4.24768 4.39538C5.14257 3.41172 6.44028 3.08525 7.93198 3.00104Z" fill="#343434"/>
<path fill-rule="evenodd" clip-rule="evenodd" d="M16.8723 14.9845C16.3419 14.9845 15.8332 15.1952 15.4581 15.5703C15.0831 15.9454 14.8723 16.4541 14.8723 16.9845C14.8723 17.2472 14.9241 17.5072 15.0246 17.7499C15.1251 17.9925 15.2724 18.213 15.4581 18.3987C15.6438 18.5844 15.8643 18.7318 16.107 18.8323C16.3496 18.9328 16.6097 18.9845 16.8723 18.9845C17.135 18.9845 17.3951 18.9328 17.6377 18.8323C17.8804 18.7318 18.1008 18.5844 18.2866 18.3987C18.4723 18.213 18.6196 17.9925 18.7201 17.7499C18.8206 17.5072 18.8723 17.2472 18.8723 16.9845C18.8723 16.4541 18.6616 15.9454 18.2866 15.5703C17.9115 15.1952 17.4028 14.9845 16.8723 14.9845ZM14.9165 15.0287C15.4352 14.51 16.1388 14.2186 16.8723 14.2186C17.6059 14.2186 18.3095 14.51 18.8282 15.0287C19.3469 15.5474 19.6383 16.2509 19.6383 16.9845C19.6383 17.3477 19.5668 17.7074 19.4278 18.043C19.2887 18.3786 19.085 18.6835 18.8282 18.9403C18.5713 19.1972 18.2664 19.4009 17.9308 19.5399C17.5952 19.6789 17.2356 19.7505 16.8723 19.7505C16.5091 19.7505 16.1494 19.6789 15.8139 19.5399C15.4783 19.4009 15.1734 19.1972 14.9165 18.9403C14.6597 18.6835 14.4559 18.3786 14.3169 18.043C14.1779 17.7074 14.1064 17.3477 14.1064 16.9845C14.1064 16.2509 14.3978 15.5474 14.9165 15.0287ZM19.1547 19.2669C19.3043 19.1173 19.5468 19.1173 19.6963 19.2669L20.8878 20.4584C21.0374 20.6079 21.0374 20.8504 20.8878 21C20.7383 21.1496 20.4958 21.1496 20.3462 21L19.1547 19.8085C19.0052 19.6589 19.0052 19.4165 19.1547 19.2669Z" fill="#343434"/>
</svg>
