<svg width="16" height="16" viewBox="0 0 16 16" fill="none" xmlns="http://www.w3.org/2000/svg">
<path fill-rule="evenodd" clip-rule="evenodd" d="M6.9877 2.17079C7.30168 2.04719 7.66723 2 7.99629 2C8.32624 2 8.6915 2.04745 9.00691 2.16869L9.01307 2.17106L11.4828 3.14665C11.4827 3.14659 11.483 3.14671 11.4828 3.14665C11.4829 3.14665 11.4833 3.14684 11.4834 3.14685C11.9381 3.32622 12.3096 3.67777 12.5643 4.06585C12.8191 4.45416 13 4.9444 13 5.45558V9.33252C13 9.79581 12.86 10.2733 12.669 10.6737C12.4778 11.0743 12.1975 11.4772 11.8455 11.7544L9.71849 13.4281C9.71807 13.4284 9.71764 13.4288 9.71722 13.4291C9.21705 13.8249 8.59114 14 8 14C7.40879 14 6.78282 13.8249 6.28263 13.429C6.28225 13.4287 6.28188 13.4284 6.28151 13.4281L4.1548 11.7547C3.80283 11.4774 3.52224 11.0743 3.33106 10.6737C3.14 10.2733 3 9.79582 3 9.33252V5.45558C3 4.9444 3.18086 4.45416 3.43572 4.06585C3.69042 3.67777 4.06191 3.32622 4.51664 3.14685C4.51657 3.14688 4.51672 3.14682 4.51664 3.14685C4.51674 3.14681 4.51706 3.14668 4.51715 3.14665L6.9877 2.17079ZM6.72773 12.8025C7.42575 13.3556 8.57425 13.3556 9.27227 12.8025L11.401 11.1275C11.8713 10.757 12.2574 9.94824 12.2574 9.33252V5.45558C12.2574 4.81378 11.7921 4.10414 11.2228 3.87977L8.75248 2.90401C8.33169 2.74225 7.65841 2.74225 7.24752 2.90401L4.77723 3.87977C4.20792 4.10414 3.74257 4.81378 3.74257 5.45558V9.33252C3.74257 9.94824 4.12872 10.757 4.59902 11.1275L6.72773 12.8025Z" fill="#555555"/>
<path fill-rule="evenodd" clip-rule="evenodd" d="M7.96535 5.99304C7.69021 5.99304 7.46534 6.23005 7.46534 6.52006C7.46534 6.80563 7.6776 7.03547 7.93745 7.04708H7.98815C8.2481 7.03552 8.46148 6.81023 8.46535 6.51804C8.46431 6.22895 8.23985 5.99304 7.96535 5.99304ZM6.72277 6.52006C6.72277 5.79778 7.2801 5.21035 7.96535 5.21035C8.65061 5.21035 9.20793 5.79778 9.20793 6.52006V6.52414C9.20095 7.23089 8.67472 7.80711 8.0069 7.82957C8.00295 7.82971 7.999 7.82977 7.99505 7.82977H7.93069C7.92674 7.82977 7.9228 7.82971 7.91885 7.82957C7.25032 7.80708 6.72277 7.22403 6.72277 6.52006Z" fill="#555555"/>
<path fill-rule="evenodd" clip-rule="evenodd" d="M9.18219 8.57453C9.49684 8.79601 9.70298 9.12691 9.70298 9.50734C9.70298 9.88805 9.49655 10.2191 9.18154 10.4406C8.83783 10.6831 8.40533 10.7923 7.99258 10.7923C7.5797 10.7923 7.14706 10.6831 6.8033 10.4404C6.48847 10.2189 6.28218 9.88791 6.28218 9.50734C6.28218 9.12651 6.48875 8.79532 6.80395 8.57383L6.8046 8.57338C7.15013 8.33169 7.58327 8.22242 7.99629 8.22242C8.40863 8.22242 8.84036 8.33137 9.18219 8.57453ZM7.21554 9.2253C7.05577 9.33768 7.02476 9.4473 7.02476 9.50734C7.02476 9.56742 7.05581 9.67715 7.21586 9.78961L7.21651 9.79007C7.41236 9.92832 7.69259 10.0096 7.99258 10.0096C8.29257 10.0096 8.5728 9.92832 8.76865 9.79007L8.7693 9.78961C8.92935 9.67715 8.9604 9.56742 8.9604 9.50734C8.9604 9.44726 8.92935 9.33754 8.7693 9.22507L8.76733 9.22369C8.57467 9.08643 8.29643 9.00512 7.99629 9.00512C7.69661 9.00512 7.41455 9.08622 7.21554 9.2253Z" fill="#555555"/>
</svg>
