<svg width="70" height="73" viewBox="0 0 70 73" fill="none" xmlns="http://www.w3.org/2000/svg">
<g clip-path="url(#clip0_582_1504)">
<g filter="url(#filter0_d_582_1504)">
<path d="M35 69C52.9493 69 67.5 54.4493 67.5 36.5C67.5 18.5507 52.9493 4 35 4C17.0507 4 2.5 18.5507 2.5 36.5C2.5 54.4493 17.0507 69 35 69Z" fill="#F1EBF9"/>
</g>
<g filter="url(#filter1_d_582_1504)">
<path d="M14.75 19C18.8921 19 22.25 15.6421 22.25 11.5C22.25 7.35786 18.8921 4 14.75 4C10.6079 4 7.25 7.35786 7.25 11.5C7.25 15.6421 10.6079 19 14.75 19Z" fill="#7835C3"/>
</g>
<g filter="url(#filter2_d_582_1504)">
<path d="M52.25 69C55.0114 69 57.25 66.7614 57.25 64C57.25 61.2386 55.0114 59 52.25 59C49.4886 59 47.25 61.2386 47.25 64C47.25 66.7614 49.4886 69 52.25 69Z" fill="#7835C3"/>
</g>
<path fill-rule="evenodd" clip-rule="evenodd" d="M35.1299 24.4005C32.2669 24.4005 29.9631 26.495 29.9631 29.0758C29.9631 31.5883 32.1321 33.6269 34.8707 33.7369C35.0368 33.7265 35.2122 33.726 35.3777 33.7368C38.1136 33.6256 40.284 31.5884 40.2967 29.0739C40.2955 26.4954 37.9797 24.4005 35.1299 24.4005ZM27.8628 29.0758C27.8628 25.4482 31.1038 22.5 35.1299 22.5C39.1404 22.5 42.397 25.4468 42.397 29.0758V29.0797C42.3807 32.6279 39.2899 35.5197 35.3892 35.6384C35.3426 35.6398 35.2959 35.6384 35.2494 35.6342C35.1819 35.6281 35.081 35.6273 34.9869 35.635C34.9436 35.6386 34.9001 35.6397 34.8566 35.6384C30.9567 35.5198 27.8628 32.6277 27.8628 29.0758Z" fill="#7835C3"/>
<path fill-rule="evenodd" clip-rule="evenodd" d="M35.1231 38.5655C32.7414 38.5655 30.4153 39.1143 28.699 40.1535L28.6967 40.1549C27.2217 41.0428 26.6238 42.1202 26.6238 43.0776C26.6238 44.0356 27.2222 45.1165 28.6984 46.0109C30.4228 47.0509 32.7426 47.5993 35.1301 47.5993C35.7101 47.5993 36.1802 48.0247 36.1802 48.5495C36.1802 49.0744 35.7101 49.4998 35.1301 49.4998C32.4212 49.4998 29.6725 48.8827 27.5325 47.5917L27.5308 47.5907C25.619 46.4327 24.5234 44.8151 24.5234 43.0776C24.5234 41.3399 25.6194 39.7251 27.5322 38.5732C29.6662 37.2816 32.4224 36.665 35.1231 36.665C37.8242 36.665 40.5809 37.2818 42.7152 38.5739C43.1972 38.8658 43.3265 39.456 43.004 39.8921C42.6814 40.3283 42.0292 40.4453 41.5472 40.1535C39.8308 39.1143 37.5047 38.5655 35.1231 38.5655Z" fill="#7835C3"/>
<path fill-rule="evenodd" clip-rule="evenodd" d="M45.1788 39.0106C45.8962 38.9355 46.5563 39.2638 47.1442 39.8628C47.7354 40.4652 48.0614 41.1393 47.9904 41.8719C47.9234 42.5611 47.5202 43.0954 47.1442 43.4787L43.3234 47.3718C43.1648 47.5413 42.9697 47.6643 42.8096 47.7459C42.6409 47.8318 42.4359 47.9098 42.2298 47.9429L42.2164 47.9451L40.7577 48.154C40.2801 48.2233 39.787 48.0954 39.4312 47.733C39.0754 47.3705 38.9497 46.8689 39.0177 46.3821L39.225 44.8814C39.2581 44.6679 39.3363 44.4604 39.4202 44.2913C39.5041 44.1223 39.6234 43.9323 39.7773 43.7755L43.6065 39.8739C43.9825 39.4907 44.506 39.0811 45.1788 39.0106ZM45.3447 40.6551C45.228 40.6674 45.0376 40.7537 44.7538 41.043L40.926 44.9432C40.926 44.9432 40.9194 44.9507 40.9094 44.9657C40.8965 44.9846 40.882 45.0093 40.868 45.0376C40.854 45.0658 40.843 45.0925 40.8355 45.1144C40.8308 45.128 40.8278 45.1399 40.8278 45.1399L40.6397 46.5016L41.9768 46.3099C41.9768 46.3099 41.9901 46.3065 42.006 46.3008C42.0292 46.2927 42.0564 46.2812 42.0838 46.2672C42.1117 46.253 42.1338 46.2394 42.1486 46.2289C42.152 46.2265 42.1563 46.2232 42.1563 46.2232C42.1601 46.2192 42.164 46.2153 42.1678 46.2113L45.9969 42.3097C46.2807 42.0204 46.3642 41.8275 46.3758 41.7092C46.383 41.6346 46.3792 41.4213 45.9969 41.0319C45.6221 40.65 45.4169 40.6476 45.3447 40.6551Z" fill="#7835C3"/>
<path fill-rule="evenodd" clip-rule="evenodd" d="M43.4118 40.2237C43.8435 40.1015 44.2905 40.3591 44.4104 40.799C44.6588 41.71 45.3531 42.4175 46.2473 42.6704C46.6789 42.7927 46.9317 43.2482 46.8118 43.6882C46.6918 44.128 46.2447 44.3857 45.813 44.2634C44.3707 43.8551 43.2479 42.7111 42.8472 41.2414C42.7272 40.8016 42.9799 40.3458 43.4118 40.2237Z" fill="#7835C3"/>
</g>
<defs>
<filter id="filter0_d_582_1504" x="0.5" y="2" width="69" height="69" filterUnits="userSpaceOnUse" color-interpolation-filters="sRGB">
<feFlood flood-opacity="0" result="BackgroundImageFix"/>
<feColorMatrix in="SourceAlpha" type="matrix" values="0 0 0 0 0 0 0 0 0 0 0 0 0 0 0 0 0 0 127 0" result="hardAlpha"/>
<feOffset/>
<feGaussianBlur stdDeviation="1"/>
<feComposite in2="hardAlpha" operator="out"/>
<feColorMatrix type="matrix" values="0 0 0 0 0 0 0 0 0 0 0 0 0 0 0 0 0 0 0.1 0"/>
<feBlend mode="normal" in2="BackgroundImageFix" result="effect1_dropShadow_582_1504"/>
<feBlend mode="normal" in="SourceGraphic" in2="effect1_dropShadow_582_1504" result="shape"/>
</filter>
<filter id="filter1_d_582_1504" x="3.25" y="0" width="23" height="23" filterUnits="userSpaceOnUse" color-interpolation-filters="sRGB">
<feFlood flood-opacity="0" result="BackgroundImageFix"/>
<feColorMatrix in="SourceAlpha" type="matrix" values="0 0 0 0 0 0 0 0 0 0 0 0 0 0 0 0 0 0 127 0" result="hardAlpha"/>
<feOffset/>
<feGaussianBlur stdDeviation="2"/>
<feComposite in2="hardAlpha" operator="out"/>
<feColorMatrix type="matrix" values="0 0 0 0 0 0 0 0 0 0 0 0 0 0 0 0 0 0 0.2 0"/>
<feBlend mode="normal" in2="BackgroundImageFix" result="effect1_dropShadow_582_1504"/>
<feBlend mode="normal" in="SourceGraphic" in2="effect1_dropShadow_582_1504" result="shape"/>
</filter>
<filter id="filter2_d_582_1504" x="43.25" y="55" width="18" height="18" filterUnits="userSpaceOnUse" color-interpolation-filters="sRGB">
<feFlood flood-opacity="0" result="BackgroundImageFix"/>
<feColorMatrix in="SourceAlpha" type="matrix" values="0 0 0 0 0 0 0 0 0 0 0 0 0 0 0 0 0 0 127 0" result="hardAlpha"/>
<feOffset/>
<feGaussianBlur stdDeviation="2"/>
<feComposite in2="hardAlpha" operator="out"/>
<feColorMatrix type="matrix" values="0 0 0 0 0 0 0 0 0 0 0 0 0 0 0 0 0 0 0.2 0"/>
<feBlend mode="normal" in2="BackgroundImageFix" result="effect1_dropShadow_582_1504"/>
<feBlend mode="normal" in="SourceGraphic" in2="effect1_dropShadow_582_1504" result="shape"/>
</filter>
<clipPath id="clip0_582_1504">
<rect width="70" height="73" fill="white"/>
</clipPath>
</defs>
</svg>
