<svg width="18" height="19" viewBox="0 0 18 19" fill="none" xmlns="http://www.w3.org/2000/svg">
<path d="M9.00446 9.96816C6.90304 9.96816 5.19677 8.35088 5.19677 6.35908C5.19677 4.36728 6.89855 2.75 9.00446 2.75C11.1104 2.75 12.8122 4.36728 12.8122 6.35908C12.8122 8.35088 11.1059 9.96816 9.00446 9.96816ZM9.00446 3.69057C7.45085 3.69057 6.1891 4.88651 6.1891 6.35908C6.1891 7.83165 7.45085 9.02759 9.00446 9.02759C10.5581 9.02759 11.8198 7.83165 11.8198 6.35908C11.8198 4.88651 10.5581 3.69483 9.00446 3.69057Z" fill="#555555"/>
<path d="M14.6936 16.2457C14.4197 16.2457 14.1952 16.0329 14.1952 15.7733C14.1952 13.6113 11.8647 11.8493 9.00449 11.8493C6.14423 11.8493 3.80933 13.6113 3.80933 15.7776C3.80933 16.0372 3.58481 16.25 3.31091 16.25C3.03701 16.25 2.8125 16.0372 2.8125 15.7776C2.8125 13.0963 5.58745 10.913 9 10.913C12.4126 10.913 15.1875 13.0963 15.1875 15.7776C15.1875 16.0372 14.963 16.25 14.6891 16.25" fill="#555555"/>
</svg>
